<?xml version="1.0" encoding="utf-8"?>
<!-- Generator: Adobe Illustrator 24.1.2, SVG Export Plug-In . SVG Version: 6.00 Build 0)  -->
<svg version="1.1" id="Layer_1" xmlns="http://www.w3.org/2000/svg" xmlns:xlink="http://www.w3.org/1999/xlink" x="0px" y="0px"
	 viewBox="0 0 177 79.7" style="enable-background:new 0 0 177 79.7;" xml:space="preserve">
<style type="text/css">
	.st0{fill:#FFFFFF;}
</style>
<path class="st0" d="M63,70.4C63,70.4,63,70.3,63,70.4c-2.5-0.9-3.5-3.6-2.2-5.9c0.7-1.2,2-1.8,3.5-1.5c1.4,0.3,2.4,1.3,2.7,2.7
	c0.2,0.9,0.1,1.7-0.2,2.5c-0.4,1.1-1.2,1.8-2.4,2.1c0,0-0.1,0.1-0.1,0.1C63.8,70.4,63.4,70.4,63,70.4z M66.1,66.5
	c0-0.2,0-0.5-0.1-0.8c-0.2-1.2-1.1-2-2.3-2.1c-1.1-0.1-2.1,0.6-2.4,1.8c-0.2,0.7-0.2,1.5,0,2.2c0.3,1.2,1.2,1.9,2.3,1.9
	c1.1,0,2-0.7,2.3-1.8C66,67.4,66.1,67,66.1,66.5z"/>
<path class="st0" d="M23.5,70.4C23.5,70.4,23.5,70.3,23.5,70.4c-2.4-0.6-2.9-2.9-2.6-4.7c0.4-2.1,2.4-3.3,4.5-2.6
	c0.9,0.3,1.5,0.9,1.9,1.8c0.4,1.1,0.4,2.2,0,3.3c-0.4,1-1.1,1.7-2.2,2c-0.1,0-0.2,0-0.2,0.1C24.5,70.4,24,70.4,23.5,70.4z
	 M26.7,66.7c0-0.3,0-0.7-0.1-1c-0.3-1.2-1.1-1.9-2.3-1.9c-1.1,0-2,0.6-2.3,1.7c-0.3,0.8-0.2,1.7,0,2.5c0.4,1.1,1.2,1.7,2.3,1.7
	c1.1,0,1.9-0.6,2.2-1.7C26.6,67.5,26.7,67.1,26.7,66.7z"/>
<path class="st0" d="M157.8,70.4C157.8,70.4,157.8,70.3,157.8,70.4c-2.5-0.9-3.5-3.6-2.2-5.9c0.7-1.2,2-1.8,3.5-1.5
	c1.4,0.3,2.4,1.3,2.7,2.7c0.2,0.9,0.1,1.8-0.2,2.6c-0.4,1.1-1.2,1.8-2.3,2c0,0-0.1,0.1-0.1,0.1C158.6,70.4,158.2,70.4,157.8,70.4z
	 M160.9,66.7c0-0.3-0.1-0.6-0.1-0.9c-0.2-1.2-1.1-2-2.3-2c-1.2,0-2.1,0.7-2.4,1.9c-0.1,0.6-0.1,1.1-0.1,1.7c0.2,1.3,1,2.2,2.3,2.3
	c1.2,0.1,2.2-0.6,2.5-1.9C160.8,67.3,160.9,67,160.9,66.7z"/>
<path class="st0" d="M44.9,70.4c0-0.1-0.1-0.1-0.1-0.1c-1.2-0.4-1.8-1.1-1.9-2.4c0-1.5,0-3,0-4.6c0-0.4,0.3-0.3,0.5-0.3
	c0.2,0,0.4,0,0.4,0.3c0,1.2,0,2.4,0,3.6c0,0.2,0,0.4,0,0.6c0.1,1.5,1,2.2,2.4,1.9c0.8-0.1,1.4-0.8,1.4-1.7c0-1.4,0-2.8,0-4.3
	c0-0.6,0.1-0.7,0.7-0.6c0.1,0,0.2,0.1,0.2,0.2c0,1.7,0.1,3.3-0.1,5c-0.1,1.2-0.8,1.9-2,2.1c0,0-0.1,0.1-0.1,0.1
	C45.8,70.4,45.4,70.4,44.9,70.4z"/>
<path class="st0" d="M37.7,70.4c-0.1-0.2-0.3-0.1-0.4-0.2c-0.7-0.2-0.7-0.2-0.7-1c0.8,0.3,1.6,0.5,2.5,0.4c0.7-0.1,1.2-0.5,1.3-1.1
	c0.1-0.6-0.1-1-0.7-1.2c-0.5-0.2-0.9-0.3-1.4-0.4c-1.3-0.4-1.8-1-1.7-2.1c0.1-1,0.9-1.7,2.1-1.8c0.5,0,1.1,0,1.6,0.2
	c0.9,0.3,0.7,0.1,0.7,1c-0.6-0.2-1.1-0.4-1.7-0.4c-0.3,0-0.7,0-1,0.1c-0.5,0.2-0.8,0.5-0.8,1.1c0,0.5,0.2,0.9,0.8,1.1
	c0.5,0.2,1,0.3,1.5,0.4c1.2,0.4,1.6,0.9,1.6,2c0,1-0.7,1.6-1.8,1.9c-0.1,0-0.2,0-0.3,0.1C38.8,70.4,38.2,70.4,37.7,70.4z"/>
<path class="st0" d="M17.2,70.4c0-0.1-0.1-0.1-0.1-0.1c-1.7-0.3-2.7-1.5-2.7-3.5c0-3,2.3-4.3,4.9-3.7c0.6,0.1,0.3,0.5,0.4,0.9
	c-1.5-0.4-3-0.5-3.9,1.1c-0.7,1.1-0.7,2.4,0.1,3.5c1,1.4,2.4,1.1,3.8,0.8c0.1,0.7,0.1,0.7-0.8,1C18.3,70.4,17.7,70.4,17.2,70.4z"/>
<path class="st0" d="M12.9,11c0,2.3,0,4.7,0,7c0,0.2,0.1,0.4-0.1,0.5C12.9,16,12.9,13.5,12.9,11C12.9,11,12.9,11,12.9,11z"/>
<g>
	<path class="st0" d="M12.9,11c0.2,0,0.3,0,0.5,0c13.9,0,27.9,0,41.8,0c0.4,0,0.5,0.1,0.5,0.5c0,2.2,0,4.5,0,6.7
		c0,0.4-0.1,0.5-0.5,0.5c-7.2,0-14.4,0-21.6,0c-0.4,0-0.6,0.1-0.6,0.5c0,9.7,0,19.4,0,29.1c0,0.3-0.1,0.6-0.3,0.8
		c-2,2-4,3.9-5.9,5.9c-0.3,0.3-1,0.4-1.4,0.3c-0.1,0-0.1-0.1-0.1-0.2c0-0.1,0-0.2,0-0.4c0-11.9,0-23.7,0-35.6c0-0.4-0.1-0.5-0.5-0.5
		c-3.9,0-7.8,0-11.7,0c-0.1,0-0.2,0-0.3,0c0-0.1,0-0.1,0-0.2c0.2-0.2,0.1-0.3,0.1-0.5C12.9,15.6,12.9,13.3,12.9,11z"/>
	<path class="st0" d="M132.1,55.3c-0.8,0-1.7,0-2.5,0c-2.7,0-5.5,0-8.2,0c-0.3,0-0.5-0.1-0.7-0.3c-5.3-5.3-10.6-10.6-15.9-15.9
		c-0.3-0.3-0.4-0.3-0.7,0c-4.6,4.6-9.2,9.2-13.8,13.8c-0.9,0.8-1.8,1.6-2.9,2.1c-0.8,0.3-1.6,0.4-2.4,0.3c-1.5-0.3-2.5-1.6-2.6-3.3
		c0-0.3,0-0.5,0-0.8c0-13.2,0-26.5,0-39.7c0-0.4,0.1-0.5,0.5-0.5c2.2,0,4.5,0,6.7,0c0.4,0,0.6,0.1,0.6,0.5c0,9.9,0,19.7,0,29.6
		c0,0.2,0,0.4,0.1,0.7c0.1-0.2,0.2-0.4,0.3-0.5c10-10,20-20,30.1-30c0.2-0.2,0.5-0.4,0.8-0.4c3.4,0,6.8,0,10.2,0c0.2,0,0.3,0,0.5,0
		c0,0.2-0.2,0.3-0.3,0.4c-7.1,7.1-14.2,14.2-21.4,21.3c-0.3,0.3-0.3,0.4,0,0.7c7.1,7.2,14.3,14.3,21.4,21.5c0.1,0.1,0.2,0.2,0.3,0.2
		C132.1,55.2,132.1,55.3,132.1,55.3z"/>
	<path class="st0" d="M29.9,55.2c0.1-0.1,0.3-0.2,0.4-0.3c13.8-13.8,27.7-27.6,41.5-41.4c0.8-0.8,1.7-1.6,2.7-2
		c0.5-0.2,1-0.4,1.5-0.4c2-0.2,3.4,1.1,3.7,3c0,0.4,0.1,0.8,0.1,1.1c0,13.2,0,26.4,0,39.6c0,0.5-0.1,0.5-0.6,0.5c-2.2,0-4.4,0-6.6,0
		c-0.5,0-0.6-0.1-0.6-0.6c0-3,0-6,0-9c0-0.4-0.1-0.5-0.5-0.5c-6.7,0-13.3,0-20,0c-0.3,0-0.5,0.1-0.7,0.3c-3.1,3.1-6.3,6.3-9.4,9.4
		c-0.1,0.1-0.3,0.3-0.5,0.3c-3.6,0-7.3,0-10.9,0C29.9,55.3,29.9,55.2,29.9,55.2z M58.5,38c0.1,0.1,0.2,0.1,0.2,0.1
		c4.3,0,8.6,0,12.9,0c0.3,0,0.4-0.1,0.4-0.4c0-4.2,0-8.3,0-12.5c0-0.1,0.1-0.2-0.1-0.4C67.4,29.2,63,33.6,58.5,38z"/>
	<path class="st0" d="M127.8,18.7c0.2-0.2,0.3-0.3,0.4-0.4c2.3-2.3,4.7-4.7,7-7c0.2-0.2,0.4-0.3,0.7-0.3c9,0,17.9,0,26.9,0
		c0.3,0,0.5,0.1,0.5,0.4c0,2.3,0,4.5,0,6.8c0,0.4-0.1,0.5-0.5,0.5c-5.3,0-10.7,0-16,0c-0.5,0-0.6,0.1-0.6,0.6c0,11.8,0,23.7,0,35.5
		c0,0.5-0.1,0.6-0.6,0.6c-2.2,0-4.5,0-6.7,0c-0.4,0-0.5-0.1-0.5-0.5c0-11.9,0-23.7,0-35.6c0-0.5-0.1-0.6-0.6-0.6c-3.2,0-6.4,0-9.5,0
		C128.3,18.7,128.1,18.7,127.8,18.7z"/>
</g>
<path class="st0" d="M127.6,64.2c0,1.9,0,3.7,0,5.6c0,0.3,0,0.5-0.4,0.5c-0.4,0-0.5-0.1-0.5-0.5c0-2.1,0-4.2,0-6.3
	c0-0.3,0.1-0.4,0.4-0.4c0.9,0,0.9,0,1.2,0.8c0.7,1.6,1.3,3.2,2,4.9c0.1,0,0.1-0.1,0.1-0.1c0.6-1.7,1.4-3.4,2.1-5.1
	c0.1-0.3,0.3-0.4,0.6-0.4c0.8,0,0.8,0,0.8,0.8c0,1.9,0,3.9,0,5.8c0,0.3,0,0.6-0.4,0.6c-0.5,0-0.4-0.3-0.4-0.6c0-1.8,0-3.6,0-5.4
	c-0.1,0-0.1,0.1-0.1,0.2c-0.7,1.8-1.5,3.6-2.3,5.5c-0.1,0.1-0.1,0.3-0.3,0.3c-0.3,0-0.3-0.2-0.4-0.3c-0.8-1.8-1.5-3.6-2.3-5.5
	C127.7,64.4,127.6,64.3,127.6,64.2z"/>
<path class="st0" d="M34.1,68.9c0-1.3,0-2.5,0-3.7c0-0.6,0-1.2,0-1.8c0-0.4,0.1-0.4,0.4-0.4c0.3,0,0.5,0,0.5,0.4c0,1.9,0,3.8,0,5.7
	c0,0.2,0,0.3,0,0.5c-0.1,0.2,0.2,0.6-0.2,0.7c-0.3,0.1-0.7,0.1-1-0.3c-1.2-1.8-2.5-3.6-3.7-5.4c0,0-0.1-0.1-0.2-0.2
	c0.1,1.7,0.1,3.3,0.1,4.8c0,0.2,0,0.4,0,0.6c0,0.5-0.2,0.7-0.7,0.5c-0.2,0-0.2-0.1-0.2-0.3c0-2.2,0-4.4,0-6.7c0-0.1,0-0.3,0.1-0.3
	c0.3,0,0.6-0.1,0.8,0.1c0.1,0.1,0.1,0.2,0.2,0.3c1.2,1.7,2.4,3.5,3.6,5.2C34,68.7,34,68.8,34.1,68.9z"/>
<path class="st0" d="M117,68.9c0-1.8,0-3.6,0-5.4c0-0.4,0.2-0.4,0.5-0.4c0.4,0,0.4,0.1,0.4,0.4c0,2.1,0,4.2,0,6.3
	c0,0.2,0.2,0.5-0.1,0.5c-0.3,0-0.6,0.2-0.9-0.2c-0.4-0.6-0.8-1.1-1.2-1.7c-0.9-1.3-1.8-2.6-2.8-4c0,0.3,0,0.6,0,0.9c0,1.5,0,3,0,4.5
	c0,0.3,0,0.5-0.4,0.5c-0.4,0-0.5-0.1-0.5-0.5c0-2.1,0-4.2,0-6.3c0-0.2-0.1-0.4,0.1-0.5c0.3,0,0.6-0.2,0.9,0.2
	c0.1,0.2,0.3,0.4,0.4,0.6c1.1,1.6,2.3,3.3,3.4,4.9C116.9,68.8,116.9,68.8,117,68.9z"/>
<path class="st0" d="M146.8,68.9c0-1.8,0-3.6,0-5.4c0-0.4,0.4-0.7,0.8-0.5c0.1,0.1,0.1,0.2,0.1,0.3c0,2.2,0,4.4,0,6.6
	c0,0.1,0,0.3-0.1,0.3c-0.3,0-0.6,0.2-0.8-0.2c-0.2-0.3-0.5-0.7-0.7-1c-1.1-1.6-2.2-3.1-3.3-4.7c-0.1,0.1,0,0.2,0,0.3
	c0,1.7,0,3.4,0,5.1c0,0.4-0.1,0.4-0.5,0.4c-0.3,0-0.4-0.1-0.4-0.4c0-2.1,0-4.2,0-6.3c0-0.2-0.1-0.4,0.1-0.5c0.3,0,0.6-0.2,0.8,0.2
	c0.2,0.3,0.5,0.7,0.7,1.1C144.6,65.8,145.7,67.3,146.8,68.9z"/>
<path class="st0" d="M99.7,67.2c0.8,1,1.5,2,2.3,3c-0.6,0.1-1.1,0.1-1.5-0.5c-0.5-0.8-1-1.4-1.6-2.1c-0.2-0.2-1-0.4-1.2-0.2
	c-0.1,0.1-0.1,0.2-0.1,0.3c0,0.8,0,1.5,0,2.3c0,0.4-0.2,0.3-0.4,0.3c-0.2,0-0.5,0.1-0.5-0.3c0-2.2,0-4.4,0-6.6c0-0.2,0-0.3,0.2-0.3
	c0.9,0,1.9-0.1,2.8,0.1c1.1,0.2,1.7,0.9,1.7,1.9c0,1-0.5,1.7-1.6,2C99.9,67.1,99.8,67.1,99.7,67.2z M97.6,65.2c0,0.4,0,0.7,0,1.1
	c0,0.1,0,0.3,0.2,0.3c0.7,0,1.4,0.1,2-0.2c0.6-0.2,0.9-0.7,0.8-1.3c0-0.6-0.4-0.9-1-1.1c-0.6-0.1-1.2-0.1-1.8-0.1
	c-0.2,0-0.2,0.1-0.2,0.3C97.6,64.5,97.6,64.8,97.6,65.2z"/>
<path class="st0" d="M73.8,70.2c-0.6,0.1-1.1,0.1-1.5-0.5c-0.5-0.8-1.1-1.5-1.6-2.2c-0.1-0.2-1-0.3-1.1-0.2
	c-0.1,0.1-0.1,0.2-0.1,0.3c0,0.8,0,1.5,0,2.3c0,0.4-0.2,0.4-0.4,0.4c-0.3,0-0.4,0-0.4-0.4c0-2.1,0-4.3,0-6.4c0-0.3,0.1-0.4,0.4-0.4
	c0.8,0,1.6,0,2.4,0.1c1.5,0.2,2.3,1.3,1.9,2.7c-0.2,0.7-0.8,1.1-1.5,1.3c-0.3,0.1-0.3,0.2-0.1,0.4c0.6,0.8,1.2,1.6,1.8,2.4
	C73.6,69.9,73.7,70.1,73.8,70.2z M70.4,63.8c-0.2,0-0.5,0-0.7,0c-0.2,0-0.2,0.1-0.2,0.2c0,0.7,0,1.4,0,2.2c0,0.1,0,0.2,0.2,0.2
	c0.7,0,1.4,0.1,2-0.2c0.6-0.2,0.9-0.7,0.8-1.3c0-0.6-0.4-1-1-1.1C71.1,63.8,70.7,63.8,70.4,63.8z"/>
<path class="st0" d="M103.3,66.7c0-1.1,0-2.2,0-3.3c0-0.3,0.1-0.4,0.4-0.4c1.2,0,2.5,0,3.7,0c0.4,0,0.3,0.2,0.4,0.4
	c0,0.3,0,0.4-0.4,0.4c-0.9,0-1.9,0-2.8,0c-0.3,0-0.3,0.1-0.3,0.3c0,0.6,0,1.1,0,1.7c0,0.3,0.1,0.3,0.3,0.3c0.8,0,1.6,0,2.3,0
	c0.3,0,0.5,0.1,0.4,0.4c0,0.3-0.1,0.4-0.4,0.4c-0.8,0-1.6,0-2.3,0c-0.3,0-0.4,0.1-0.4,0.4c0,0.6,0,1.2,0,1.8c0,0.3,0.1,0.4,0.4,0.3
	c1,0,2,0,2.9,0c0.3,0,0.4,0,0.4,0.4c0,0.3,0,0.5-0.4,0.4c-1.3,0-2.6,0-3.9,0c-0.3,0-0.4-0.1-0.4-0.4
	C103.3,68.8,103.3,67.7,103.3,66.7z"/>
<path class="st0" d="M135.7,66.6c0-1.1,0-2.1,0-3.2c0-0.3,0.1-0.4,0.4-0.4c1.2,0,2.5,0,3.7,0c0.4,0,0.3,0.2,0.3,0.4
	c0,0.2,0,0.4-0.3,0.4c-0.9,0-1.9,0-2.8,0c-0.3,0-0.4,0.1-0.4,0.4c0,0.5,0,1.1,0,1.6c0,0.3,0.1,0.4,0.4,0.4c0.8,0,1.6,0,2.4,0
	c0.4,0,0.3,0.2,0.3,0.4c0,0.3,0,0.4-0.4,0.4c-0.8,0-1.6,0-2.4,0c-0.3,0-0.4,0.1-0.4,0.4c0,0.6,0,1.2,0,1.8c0,0.3,0.1,0.4,0.4,0.4
	c1,0,2,0,2.9,0c0.3,0,0.4,0.1,0.4,0.4c0,0.3,0,0.4-0.4,0.4c-1.3,0-2.5,0-3.8,0c-0.3,0-0.4-0.1-0.4-0.4
	C135.8,68.8,135.7,67.7,135.7,66.6z"/>
<path class="st0" d="M77.1,70.2c1-2.3,1.9-4.6,2.8-6.9c0.1-0.3,0.3-0.2,0.5-0.2c0.2,0,0.4,0,0.5,0.2c0.9,2.2,1.8,4.5,2.7,6.7
	c0.1,0.2,0,0.2-0.2,0.3c-0.5,0.1-0.8-0.1-0.9-0.6c-0.1-0.5-0.4-0.9-0.5-1.3c-0.1-0.2-0.2-0.3-0.4-0.3c-0.8,0-1.6,0-2.4,0
	c-0.2,0-0.3,0.1-0.4,0.3c-0.1,0.4-0.3,0.8-0.5,1.2C78,70.3,78,70.3,77.1,70.2z M80.4,64.2c-0.4,1-0.7,1.9-1.1,2.8
	c-0.1,0.2-0.1,0.3,0.2,0.3c0.6,0,1.2,0,1.8,0c0.2,0,0.2-0.1,0.2-0.3C81.1,66.1,80.8,65.2,80.4,64.2z"/>
<path class="st0" d="M125.1,70.2c-0.4,0.1-0.5-0.1-0.6-0.4c0,0,0-0.1,0-0.1c-0.2-0.5-0.3-1.3-0.7-1.6c-0.4-0.3-1.2-0.1-1.8-0.1
	c-0.4,0-0.9-0.2-1.2,0.1c-0.3,0.2-0.3,0.7-0.5,1c-0.1,0.2-0.2,0.3-0.2,0.5c-0.1,0.5-0.4,0.6-0.9,0.6c-0.3,0-0.3-0.1-0.2-0.3
	c0.9-2.2,1.8-4.4,2.7-6.6c0.1-0.3,0.3-0.3,0.5-0.3c0.3,0,0.4,0.1,0.5,0.3c0.9,2.1,1.7,4.3,2.6,6.4C125.6,70.2,125.5,70.3,125.1,70.2
	z M122.3,64.2c-0.4,0.9-0.7,1.9-1.1,2.8c-0.1,0.2,0,0.3,0.2,0.3c0.4,0,0.8,0,1.2,0c0.8,0,0.8,0,0.5-0.8c-0.2-0.4-0.3-0.8-0.5-1.2
	C122.5,64.9,122.5,64.6,122.3,64.2z"/>
<path class="st0" d="M152.1,67c0,0.9,0,1.8,0,2.8c0,0.3,0,0.5-0.4,0.4c-0.3,0-0.5,0-0.5-0.4c0-1.9,0-3.7,0-5.6
	c0-0.4-0.1-0.4-0.4-0.4c-0.6,0-1.1,0-1.7,0c-0.3,0-0.3-0.2-0.3-0.4c0-0.2-0.1-0.4,0.3-0.4c1.7,0,3.4,0,5.1,0c0.4,0,0.3,0.3,0.3,0.5
	c0,0.2,0,0.3-0.3,0.3c-0.6,0-1.1,0-1.7,0c-0.3,0-0.4,0.1-0.4,0.4C152.1,65.2,152.1,66.1,152.1,67z"/>
<path class="st0" d="M56.4,67c0-0.9,0-1.8,0-2.7c0-0.3-0.1-0.5-0.4-0.5c-0.5,0-1.1,0-1.7,0c-0.3,0-0.3-0.2-0.3-0.4
	c0-0.2-0.1-0.4,0.3-0.4c1.7,0,3.4,0,5.1,0c0.4,0,0.3,0.2,0.3,0.4c0,0.2,0.1,0.4-0.3,0.4c-0.6,0-1.2,0-1.7,0c-0.3,0-0.4,0.1-0.4,0.4
	c0,1.9,0,3.7,0,5.6c0,0.3-0.1,0.5-0.4,0.4c-0.3,0-0.5-0.1-0.5-0.4C56.4,68.9,56.4,67.9,56.4,67z"/>
<path class="st0" d="M93.2,67c0,0.9,0,1.8,0,2.8c0,0.4-0.1,0.5-0.5,0.5c-0.4,0-0.4-0.2-0.4-0.5c0-1.8,0-3.6,0-5.5
	c0-0.4-0.1-0.5-0.5-0.5c-0.6,0-1.1,0-1.7,0c-0.3,0-0.3-0.2-0.3-0.3c0-0.2-0.1-0.5,0.2-0.5c1.7,0,3.4,0,5.2,0c0.4,0,0.2,0.3,0.3,0.4
	c0,0.2,0,0.4-0.3,0.4c-0.6,0-1.1,0-1.7,0c-0.3,0-0.5,0.1-0.5,0.4C93.2,65.2,93.2,66.1,93.2,67z"/>
<path class="st0" d="M50.3,66.6c0-1.1,0-2.1,0-3.2c0-0.4,0.2-0.4,0.5-0.4c0.3,0,0.4,0,0.4,0.4c0,1.9,0,3.7,0,5.6
	c0,0.4,0.1,0.4,0.4,0.4c0.9,0,1.8,0,2.8,0c0.3,0,0.3,0.1,0.3,0.4c0,0.2,0.1,0.4-0.3,0.4c-1.2,0-2.5,0-3.7,0c-0.3,0-0.4-0.1-0.4-0.4
	C50.3,68.8,50.3,67.7,50.3,66.6z"/>
<path class="st0" d="M110.2,66.6c0,1.1,0,2.2,0,3.3c0,0.4-0.2,0.4-0.4,0.3c-0.2,0-0.5,0.1-0.5-0.3c0-2.2,0-4.4,0-6.6
	c0-0.4,0.3-0.3,0.5-0.3c0.3,0,0.4,0,0.4,0.3C110.2,64.5,110.2,65.6,110.2,66.6z"/>
<path class="st0" d="M76,66.7c0,1.1,0,2.1,0,3.2c0,0.4-0.2,0.4-0.4,0.3c-0.2,0-0.5,0.1-0.5-0.3c0-2.2,0-4.3,0-6.5
	c0-0.4,0.2-0.3,0.5-0.3c0.2,0,0.4,0,0.4,0.3C75.9,64.5,76,65.6,76,66.7z"/>
<path class="st0" d="M85.7,66.6c0-0.8,0.6-1.4,1.4-1.4c0.8,0,1.4,0.6,1.4,1.4c0,0.8-0.7,1.4-1.4,1.4C86.3,68.1,85.7,67.4,85.7,66.6z
	"/>
</svg>
